# xmcd
#
# Track frame offsets:
#  150
#  17125
#  31735
#  50494
#  68699
#  81575
#  96527
#  117835
#  136158
#  150448
#  169485
#  186039
#
# Disc length: 2759 seconds
#
# Revision: 2
# Processed by: cddbd v1.5.1PL2 Copyright (c) Steve Scherf et al.
# Submitted via: Collectorz.com_Music_Collector 6.9
#
DISCID=9c0ac50c
DTITLE=Enya - Amarantine
DYEAR=2005
DGENRE=New Age
TTITLE0=Less Than A Pearl
TTITLE1=Amarantine
TTITLE2=It's In The Rain
TTITLE3=If I Could Be Where You Are
TTITLE4=The River Sings
TTITLE5=Long Long Journey
TTITLE6=Sumiregusa
TTITLE7=Somebody Said Goodbye
TTITLE8=A Moment Lost
TTITLE9=Drifting
TTITLE10=Amid The Falling Snow
TTITLE11=Water Shows The Hidden Heart
EXTD=
EXTT0=
EXTT1=
EXTT2=
EXTT3=
EXTT4=
EXTT5=
EXTT6=
EXTT7=
EXTT8=
EXTT9=
EXTT10=
EXTT11=
PLAYORDER=
